<svg xmlns="http://www.w3.org/2000/svg" viewBox="0 0 1891 1039"><defs><style>.a,.g{fill:none;}.a,.b,.c,.d{stroke:#95bbe0;}.b{fill:#f2f2f2;}.c{fill:#818f9b;}.d{fill:#fff;stroke-width:4px;}.e{fill:#094f93;stroke:#818f9b;}.f{stroke:none;}</style></defs><g transform="translate(-29 -41)"><line class="a" x1="58" y1="58" transform="translate(116.5 524.5)"/><line class="a" x2="55" y2="55" transform="translate(182.5 590.5)"/><line class="a" x1="48" y2="48" transform="translate(116.5 590.5)"/><line class="a" y2="94" transform="translate(378.5 880.5)"/><line class="a" x2="92" transform="translate(391.5 880.5)"/><line class="a" y1="151" transform="translate(378.5 180.5)"/><line class="a" x1="268" transform="translate(61.5 380.5)"/><line class="a" y2="429" transform="translate(378.5 430.5)"/><line class="a" x2="206" transform="translate(428.5 380.5)"/><line class="a" y1="273" x2="273" transform="translate(409.5 69.5)"/><line class="a" x1="81" y1="81" transform="translate(263.5 272.5)"/><line class="a" x1="162" y2="162" transform="translate(182.5 415.5)"/><g class="b" transform="translate(358 139)"><circle class="f" cx="20.5" cy="20.5" r="20.5"/><circle class="g" cx="20.5" cy="20.5" r="20"/></g><g class="c" transform="translate(358 860)"><circle class="f" cx="20.5" cy="20.5" r="20.5"/><circle class="g" cx="20.5" cy="20.5" r="20"/></g><g class="b" transform="translate(631 360)"><circle class="f" cx="20.5" cy="20.5" r="20.5"/><circle class="g" cx="20.5" cy="20.5" r="20"/></g><g class="b" transform="translate(29 360)"><circle class="f" cx="20.5" cy="20.5" r="20.5"/><circle class="g" cx="20.5" cy="20.5" r="20"/></g><g class="c" transform="translate(154 562)"><circle class="f" cx="20.5" cy="20.5" r="20.5"/><circle class="g" cx="20.5" cy="20.5" r="20"/></g><g class="b" transform="translate(672 41)"><circle class="f" cx="20.5" cy="20.5" r="20.5"/><circle class="g" cx="20.5" cy="20.5" r="20"/></g><line class="a" x2="96" y2="96" transform="translate(409.5 415.5)"/><g class="b" transform="translate(232 240)"><circle class="f" cx="20.5" cy="20.5" r="20.5"/><circle class="g" cx="20.5" cy="20.5" r="20"/></g><g class="d" transform="translate(317 319)"><circle class="f" cx="62" cy="62" r="62"/><circle class="g" cx="62" cy="62" r="60"/></g><g class="b" transform="translate(491 497)"><circle class="f" cx="20.5" cy="20.5" r="20.5"/><circle class="g" cx="20.5" cy="20.5" r="20"/></g><g class="e" transform="translate(329 331)"><circle class="f" cx="49.5" cy="49.5" r="49.5"/><circle class="g" cx="49.5" cy="49.5" r="49"/></g><line class="a" x1="66" transform="translate(292.5 880.5)"/><g class="b" transform="translate(272 860)"><circle class="f" cx="20.5" cy="20.5" r="20.5"/><circle class="g" cx="20.5" cy="20.5" r="20"/></g><g class="b" transform="translate(458 860)"><circle class="f" cx="20.5" cy="20.5" r="20.5"/><circle class="g" cx="20.5" cy="20.5" r="20"/></g><g class="b" transform="translate(358 945)"><circle class="f" cx="20.5" cy="20.5" r="20.5"/><circle class="g" cx="20.5" cy="20.5" r="20"/></g><g class="b" transform="translate(96 618)"><circle class="f" cx="20.5" cy="20.5" r="20.5"/><circle class="g" cx="20.5" cy="20.5" r="20"/></g><g class="b" transform="translate(96 510)"><circle class="f" cx="20.5" cy="20.5" r="20.5"/><circle class="g" cx="20.5" cy="20.5" r="20"/></g><g class="b" transform="translate(212 625)"><circle class="f" cx="20.5" cy="20.5" r="20.5"/><circle class="g" cx="20.5" cy="20.5" r="20"/></g><line class="a" x2="55" y2="55" transform="translate(1816 1005) rotate(-90)"/><line class="a" y1="151" transform="translate(1406 809) rotate(-90)"/><line class="a" y2="222" transform="translate(1606 858)"/><line class="a" x2="264" transform="translate(1656 809)"/><line class="a" x2="206" transform="translate(1606 759) rotate(-90)"/><line class="a" y1="273" x2="273" transform="translate(1295 778) rotate(-90)"/><line class="a" x1="81" y1="81" transform="translate(1498 924) rotate(-90)"/><line class="a" x1="162" y2="162" transform="translate(1641 1005) rotate(-90)"/><g class="b" transform="translate(1364.5 829.5) rotate(-90)"><circle class="f" cx="20.5" cy="20.5" r="20.5"/><circle class="g" cx="20.5" cy="20.5" r="20"/></g><g class="b" transform="translate(1585.5 556.5) rotate(-90)"><circle class="f" cx="20.5" cy="20.5" r="20.5"/><circle class="g" cx="20.5" cy="20.5" r="20"/></g><g class="c" transform="translate(1787.5 1033.5) rotate(-90)"><circle class="f" cx="20.5" cy="20.5" r="20.5"/><circle class="g" cx="20.5" cy="20.5" r="20"/></g><g class="b" transform="translate(1266.5 515.5) rotate(-90)"><circle class="f" cx="20.5" cy="20.5" r="20.5"/><circle class="g" cx="20.5" cy="20.5" r="20"/></g><line class="a" x2="96" y2="96" transform="translate(1641 778) rotate(-90)"/><g class="b" transform="translate(1465.5 955.5) rotate(-90)"><circle class="f" cx="20.5" cy="20.5" r="20.5"/><circle class="g" cx="20.5" cy="20.5" r="20"/></g><g class="d" transform="translate(1544.5 870.5) rotate(-90)"><circle class="f" cx="62" cy="62" r="62"/><circle class="g" cx="62" cy="62" r="60"/></g><g class="b" transform="translate(1722.5 696.5) rotate(-90)"><circle class="f" cx="20.5" cy="20.5" r="20.5"/><circle class="g" cx="20.5" cy="20.5" r="20"/></g><g class="e" transform="translate(1556.5 858.5) rotate(-90)"><circle class="f" cx="49.5" cy="49.5" r="49.5"/><circle class="g" cx="49.5" cy="49.5" r="49"/></g><g class="b" transform="translate(1850.5 975.5) rotate(-90)"><circle class="f" cx="20.5" cy="20.5" r="20.5"/><circle class="g" cx="20.5" cy="20.5" r="20"/></g></g></svg>